<?xml version="1.0" standalone="no"?><!DOCTYPE svg PUBLIC "-//W3C//DTD SVG 1.1//EN" "http://www.w3.org/Graphics/SVG/1.1/DTD/svg11.dtd"><svg t="1694961329087" class="icon" viewBox="0 0 1024 1024" version="1.1" xmlns="http://www.w3.org/2000/svg" p-id="1123" xmlns:xlink="http://www.w3.org/1999/xlink" width="200" height="200"><path d="M0 0h1024v1024H0z" fill="#F2F2F4" p-id="1124"></path><path d="M631.8976 431.36l-52.48-52.48 11.52-10.24 40.96 40.96 89.6-88.32 10.24 11.52z" fill="#333333" p-id="1125"></path><path d="M716.3776 747.904v71.68l-47.36-21.76-47.36 21.76v-71.68" fill="#69C3FD" p-id="1126"></path><path d="M724.0576 832.384l-55.04-25.6-55.04 25.6v-84.48h15.36v60.16l39.68-17.92 39.68 17.92v-60.16h15.36z" fill="#333333" p-id="1127"></path><path d="M427.0976 329.344h-140.8c-12.8 0-23.04 10.24-23.04 23.04v93.44c0 12.8 10.24 23.04 23.04 23.04h140.8c12.8 0 23.04-10.24 23.04-23.04v-93.44c1.28-12.8-8.96-23.04-23.04-23.04" fill="#DBDFE7" p-id="1128"></path><path d="M427.0976 477.824h-140.8c-16.64 0-30.72-14.08-30.72-30.72v-93.44c0-19.2 14.08-32 30.72-32h140.8c16.64 0 30.72 14.08 30.72 30.72v93.44c1.28 17.92-12.8 32-30.72 32z m-140.8-140.8c-8.96 0-15.36 7.68-15.36 15.36v93.44c0 8.96 6.4 16.64 15.36 16.64h140.8c8.96 0 15.36-7.68 15.36-15.36v-93.44c0-8.96-7.68-15.36-15.36-15.36h-140.8z" fill="#333333" p-id="1129"></path><path d="M263.2576 392.064h188.16v15.36h-188.16zM400.2176 337.024h-85.76v-32c0-16.64 14.08-30.72 30.72-30.72h23.04c16.64 0 30.72 14.08 30.72 30.72v32z m-70.4-15.36h55.04v-16.64c0-8.96-7.68-15.36-15.36-15.36h-23.04c-8.96 0-15.36 7.68-15.36 15.36v16.64zM263.2576 532.864h188.16v15.36h-188.16zM263.2576 578.944h188.16v15.36h-188.16z" fill="#333333" p-id="1130"></path><path d="M835.4176 681.344h-62.72v-15.36h47.36v-450.56h-624.64v450.56h375.04v15.36h-390.4v-481.28h655.36z" fill="#333333" p-id="1131"></path><path d="M773.9776 657.024c0 56.32-46.08 102.4-102.4 102.4s-102.4-46.08-102.4-102.4 46.08-102.4 102.4-102.4 102.4 46.08 102.4 102.4z" fill="#69C3FD" p-id="1132"></path><path d="M671.5776 767.104c-60.16 0-110.08-48.64-110.08-110.08 0-60.16 48.64-110.08 110.08-110.08s110.08 48.64 110.08 110.08c0 60.16-49.92 110.08-110.08 110.08z m0-204.8c-52.48 0-94.72 42.24-94.72 94.72 0 52.48 42.24 94.72 94.72 94.72s94.72-42.24 94.72-94.72c0-52.48-42.24-94.72-94.72-94.72z" fill="#333333" p-id="1133"></path><path d="M717.6576 724.864l-46.08-24.32-46.08 24.32 8.96-51.2-37.12-37.12 51.2-7.68 23.04-47.36 23.04 47.36 51.2 7.68-37.12 37.12 8.96 51.2z m-46.08-42.24l25.6 14.08-5.12-29.44 20.48-20.48-29.44-3.84-12.8-26.88-12.8 26.88-29.44 3.84 20.48 20.48-5.12 29.44 28.16-14.08z" fill="#333333" p-id="1134"></path></svg>